# xmcd
#
# Track frame offsets:
#	150
#	12092
#	25341
#	41367
#	55184
#	65245
#	80260
#	93340
#	106657
#	121219
#	135261
#	147875
#
# Disc length: 2162 seconds
#
# Revision: 0
# Processed by: cddbd v1.5.2PL0 Copyright (c) Steve Scherf et al.
# Submitted via: MusicManager 7.3.0.0 
#
DISCID=9008700c
DTITLE=KATHY KANE - ORDINARY DAY
DYEAR=2010
DGENRE=country
TTITLE0=PARADISE TONIGHT
TTITLE1=I STILL DO
TTITLE2=ORDINARY DAY
TTITLE3=I KNEW ENOUGH TO FALL IN LOVE WITH YOU
TTITLE4=PINS AND NEEDLES
TTITLE5=MISSING YOU
TTITLE6=LOUISIANA HOT SAUCE
TTITLE7=YOUR TIME
TTITLE8=MAYBE I MEAN YES
TTITLE9=HOW'S THE WORLD TREATING YOU
TTITLE10=LAID BACK STONE COLD
TTITLE11=TILL I CAN MAKE IT ON MY OWN
EXTD=
EXTT0=
EXTT1=
EXTT2=
EXTT3=
EXTT4=
EXTT5=
EXTT6=
EXTT7=
EXTT8=
EXTT9=
EXTT10=
EXTT11=
PLAYORDER=
